# xmcd CD database file
#
# Track frame offsets:
#	150
#	13572
#	23852
#	39207
#	51202
#	63120
#	76497
#	88440
#	101945
#	114847
#	128902
#	140915
#	154845
#	167910
#	180185
#	190837
#
# Disc length: 2692 seconds
#
# Revision: 5
# Processed by: cddbd v1.5.2PL0 Copyright (c) Steve Scherf et al.
# Submitted via: CDex 1.51
#
DISCID=d10a8210
DTITLE=Various Artist - Soul Power 1 ~ The Very Best Of Soul Cd2
DYEAR=1992
DGENRE=Soul
TTITLE0=Aretha Franklin - Don't Play That Song
TTITLE1=The Mar-Keys - Philly Dog
TTITLE2=The Persuaders - Thin Line Between Love And Hate
TTITLE3=Otis Redding - Shake
TTITLE4=Rufus and Carla - Night Time Is The Right Time
TTITLE5=Ben E. King - Spanish Harlem
TTITLE6=Sam and Dave - You Don' Know Like I Know
TTITLE7=Don Covay - See-Saw
TTITLE8=Ray Charles - I Got A Woman
TTITLE9=Solomon Burke - I'm Hanginig Up My Heart For You
TTITLE10=Carla Thomas - Confort Me
TTITLE11=Wilson Pickett - Mustang Sally
TTITLE12=Percy Sledge - Come Softly To Me
TTITLE13=William Bell - You don't Miss You Water
TTITLE14=The Coaster - Young Blood
TTITLE15=The Clovers - One Mint Julep
EXTD=YEAR: 1992
EXTT0=
EXTT1=
EXTT2=
EXTT3=
EXTT4=
EXTT5=
EXTT6=
EXTT7=
EXTT8=
EXTT9=
EXTT10=
EXTT11=
EXTT12=
EXTT13=
EXTT14=
EXTT15=
PLAYORDER=
